<?xml version="1.0" encoding="utf-8"?>
<!-- Generator: Adobe Illustrator 23.1.1, SVG Export Plug-In . SVG Version: 6.00 Build 0)  -->
<svg version="1.1" id="Layer_1" xmlns="http://www.w3.org/2000/svg" xmlns:xlink="http://www.w3.org/1999/xlink" x="0px" y="0px"
	 viewBox="0 0 180 180" style="enable-background:new 0 0 180 180;" xml:space="preserve">
<g>
	<g>
		<path style="fill:#FFFFFF;" d="M44.9,82.1L52.2,55c1-3.6,1.7-5.8,2.3-6.7s1.4-1.3,2.6-1.3c1.2,0,1.8,0.5,2,1.5
			c0.1,1-0.3,3.2-1.2,6.5l-6.8,25.5c6.4-1.6,13.2-3,20.1-4.1l6-22.2c1.3-4.8,2-7.9,2.2-9.3c0.2-1.4,0-2.9-0.6-4.4s-1.7-2.7-3.4-3.6
			c-1.7-0.8-3.8-1.3-6.4-1.3c-2.3,0-4.5,0.5-6.6,1.4c-2.2,0.9-4.3,2.3-6.4,4.2l7.2-26.9h-19l-20.4,76c1.4-0.7,2.8-1.5,4.3-2.1
			C33.1,85.8,38.8,83.9,44.9,82.1z"/>
	</g>
	<g>
		<path style="fill:#FFFFFF;" d="M29.4,101h9.2l2.5-4.8c1.1,2,2.4,3.5,4.1,4.5c1.7,1,3.6,1.5,5.8,1.5c3.1,0,6-0.8,8.7-2.5
			s4.7-3.7,5.9-6c1-1.9,2-4.6,3.1-8.1C55,89.3,42.4,93.8,33.3,98.8C31.9,99.4,30.6,100.2,29.4,101z"/>
	</g>
	<g>
		<path style="fill:#FFFFFF;" d="M95.9,73.1l4.7-17.7c1-3.7,1.8-6.1,2.4-7c0.6-1,1.6-1.5,2.8-1.5c1.3,0,1.9,0.4,2,1.3
			c0.1,0.8-0.4,3.3-1.5,7.2l-4.6,17.1c6.6-0.6,13.1-1,19.3-1.3l4.5-16.8c1.4-5.1,2.1-8.7,2.1-10.9c0.1-2.1-0.8-4-2.5-5.7
			c-1.7-1.6-4-2.4-7-2.4c-2.4,0-4.8,0.6-7.1,1.7c-2.3,1.1-4.7,2.8-7,5.1l1.8-5.7H86.7l-10.4,39c3.5-0.5,6.9-1,10.4-1.4
			C89.8,73.7,92.9,73.4,95.9,73.1z"/>
	</g>
	<g>
		<path style="fill:#FFFFFF;" d="M99,83c-0.9,3.4-1.7,5.6-2.2,6.5s-1.4,1.3-2.6,1.3c-1.3,0-1.9-0.5-2.1-1.5c-0.1-1,0.3-3.4,1.4-7.3
			l0.6-2.3c-2.1,0.4-4.2,0.8-6.3,1.2c-4.7,0.9-9.3,2-13.9,3.1l-11.8,44.1h19l8.8-32.7c1,2.2,2.4,3.9,4.2,5c1.7,1.1,3.7,1.7,6,1.7
			c2.9,0,5.7-0.8,8.1-2.2c2.5-1.5,4.4-3.4,5.7-5.9c1.3-2.5,2.8-6.6,4.3-12.5l1.6-5.9c-6.4,0.8-13,1.8-19.8,3L99,83z"/>
	</g>
	<g>
		<path style="fill:#FFFFFF;" d="M99.9,114.6h-4.1l0.3-1.3c0.2-0.6,0.2-1,0.1-1.1c-0.1-0.2-0.2-0.2-0.5-0.2s-0.5,0.1-0.7,0.3
			c-0.2,0.2-0.3,0.6-0.5,1c-0.2,0.6-0.2,1-0.1,1.3s0.4,0.6,1,1c1.7,1.2,2.6,2.1,2.9,2.9s0.2,2-0.2,3.6c-0.3,1.2-0.7,2.1-1.2,2.7
			s-1.1,1.1-2,1.4c-0.9,0.4-1.9,0.6-3,0.6c-1.2,0-2.1-0.2-2.9-0.7s-1.1-1-1.2-1.7s0.1-1.7,0.4-3l0.3-1.1h4.1l-0.6,2.1
			c-0.2,0.6-0.2,1.1-0.2,1.2c0.1,0.2,0.3,0.3,0.5,0.3s0.5-0.1,0.8-0.3c0.2-0.2,0.4-0.6,0.5-1c0.3-1,0.3-1.7,0.1-2
			c-0.2-0.3-0.8-0.8-1.7-1.6s-1.5-1.3-1.8-1.6c-0.3-0.3-0.4-0.8-0.5-1.4s0-1.3,0.3-2.2c0.3-1.3,0.8-2.3,1.3-2.9s1.2-1.1,2-1.4
			s1.8-0.5,2.8-0.5c1.2,0,2.1,0.2,2.8,0.6c0.7,0.4,1.1,0.8,1.2,1.4s0,1.5-0.4,2.9L99.9,114.6z"/>
		<path style="fill:#FFFFFF;" d="M103.1,109.4h4.5c1.2,0,2.1,0.1,2.7,0.3c0.6,0.2,1,0.5,1.2,0.8c0.2,0.4,0.3,0.8,0.3,1.3
			s-0.2,1.3-0.5,2.4l-0.4,1.5c-0.3,1.1-0.6,1.9-1,2.4s-0.9,0.9-1.5,1.2c-0.7,0.3-1.5,0.4-2.5,0.4h-1.2l-1.8,6.9h-4.4L103.1,109.4z
			 M106.7,112.3l-1.2,4.3c0.1,0,0.2,0,0.3,0c0.4,0,0.7-0.1,0.9-0.3c0.2-0.2,0.4-0.6,0.6-1.3l0.4-1.4c0.2-0.6,0.2-1,0-1.1
			C107.7,112.4,107.3,112.3,106.7,112.3z"/>
		<path style="fill:#FFFFFF;" d="M121.3,119.4c-0.5,1.7-0.8,2.9-1.1,3.6c-0.3,0.7-0.7,1.4-1.3,1.9s-1.3,1-2.1,1.4
			c-0.8,0.3-1.7,0.5-2.7,0.5c-0.9,0-1.7-0.2-2.3-0.4c-0.7-0.3-1.1-0.7-1.4-1.3s-0.4-1.3-0.3-1.9c0.1-0.7,0.4-1.9,0.9-3.7l0.8-2.9
			c0.5-1.7,0.8-2.9,1.1-3.6s0.7-1.4,1.3-1.9s1.3-1,2.1-1.4c0.8-0.3,1.7-0.5,2.7-0.5c0.9,0,1.7,0.2,2.3,0.4c0.7,0.3,1.1,0.8,1.4,1.3
			c0.3,0.6,0.4,1.3,0.3,1.9c-0.1,0.7-0.4,1.9-0.9,3.7L121.3,119.4z M118.4,113.8c0.2-0.8,0.3-1.3,0.3-1.5s-0.2-0.3-0.4-0.3
			c-0.2,0-0.4,0.1-0.6,0.3s-0.4,0.7-0.6,1.6l-2.1,7.9c-0.3,1-0.4,1.6-0.4,1.8s0.2,0.3,0.5,0.3s0.5-0.1,0.7-0.4s0.4-0.9,0.6-1.9
			L118.4,113.8z"/>
		<path style="fill:#FFFFFF;" d="M125.7,109.4h3.1c2.1,0,3.5,0.1,4.2,0.2c0.7,0.2,1.2,0.6,1.5,1.2c0.3,0.7,0.2,1.7-0.1,3.2
			c-0.4,1.3-0.8,2.2-1.2,2.7c-0.4,0.4-1.2,0.7-2.2,0.8c0.8,0.2,1.3,0.5,1.5,0.9s0.3,0.7,0.3,1s-0.2,1.1-0.6,2.5l-1.2,4.5h-4.1
			l1.5-5.7c0.2-0.9,0.3-1.5,0.2-1.7s-0.4-0.3-1-0.3l-2.1,7.7h-4.4L125.7,109.4z M129.3,112.3l-1,3.8c0.5,0,0.9-0.1,1.1-0.2
			c0.2-0.1,0.5-0.6,0.7-1.3l0.3-0.9c0.1-0.5,0.1-0.9,0-1.1C130.1,112.4,129.8,112.3,129.3,112.3z"/>
		<path style="fill:#FFFFFF;" d="M146.2,109.4l-0.9,3.4h-2.6l-3.6,13.6h-4.4l3.6-13.6h-2.6l0.9-3.4H146.2z"/>
		<path style="fill:#FFFFFF;" d="M155.2,114.6h-4.1l0.3-1.3c0.2-0.6,0.2-1,0.1-1.1c-0.1-0.2-0.2-0.2-0.5-0.2s-0.5,0.1-0.7,0.3
			c-0.2,0.2-0.4,0.6-0.5,1c-0.1,0.6-0.2,1-0.1,1.3c0.1,0.3,0.4,0.6,1,1c1.7,1.2,2.6,2.1,2.9,2.9s0.2,2-0.2,3.6
			c-0.3,1.2-0.7,2.1-1.1,2.7c-0.4,0.6-1.1,1.1-2,1.4c-0.9,0.4-1.9,0.6-3,0.6c-1.2,0-2.1-0.2-2.9-0.7s-1.1-1-1.2-1.7
			c-0.1-0.7,0.1-1.7,0.4-3l0.3-1.1h4.1l-0.6,2.1c-0.2,0.6-0.2,1.1-0.2,1.2c0.1,0.2,0.3,0.3,0.5,0.3s0.5-0.1,0.8-0.3
			c0.2-0.2,0.4-0.6,0.5-1c0.3-1,0.3-1.7,0.1-2s-0.8-0.8-1.7-1.6s-1.5-1.3-1.8-1.6c-0.3-0.3-0.4-0.8-0.5-1.4s0-1.3,0.3-2.2
			c0.4-1.3,0.8-2.3,1.3-2.9s1.2-1.1,2-1.4s1.8-0.5,2.8-0.5c1.1,0,2.1,0.2,2.8,0.6s1.1,0.8,1.2,1.4c0.1,0.6,0,1.5-0.4,2.9
			L155.2,114.6z"/>
	</g>
	<g>
		<g>
			<path style="fill:#00AEEF;" d="M118.6,101h19.5l7.5-28.1c-6.1,0.5-12.9,1.2-20.1,2.1L118.6,101z"/>
		</g>
		<g>
			<g>
				<path style="fill:#00AEEF;" d="M146.3,70.7l9.1-34h-19.6l-9.2,34.4c7-0.3,13.6-0.4,19.4-0.4C146.1,70.7,146.2,70.7,146.3,70.7z"
					/>
			</g>
			<g>
				<polygon style="fill:#00AEEF;" points="159.2,22.5 139.6,22.5 136.9,32.8 156.4,32.8 				"/>
			</g>
			<path style="fill:#00AEEF;" d="M125.7,72.3c-13.9,0.7-32.4,2.1-50.8,5.3c-18.3,3.2-36.6,8.1-49.3,15.3c-1,0.6-2,1.2-3,1.8
				l-2.6,9.9c2.2-2.1,5-4.4,8.6-6.6c11.3-7.1,29-13,46.9-16.9c18-4,36.4-6.3,50.2-7.7c13.8-1.3,23.1-1.8,23.1-1.8
				S139.6,71.7,125.7,72.3z"/>
		</g>
	</g>
</g>
<g>
	<path style="fill:#FFFFFF;" d="M20.4,159.1l5.2-19.5h2.6L23,159.1H20.4z"/>
	<path style="fill:#FFFFFF;" d="M33.5,149.1l2.5-9.4h2.6l-5.2,19.5h-2.6l1-3.9l-0.4-8.9L28,159.1h-2.6l5.2-19.5h2.6L33.5,149.1z"/>
	<path style="fill:#FFFFFF;" d="M44,149.1l2.5-9.4h2.6l-5.2,19.5h-2.6l1-3.9l-0.4-8.9l-3.4,12.8h-2.6l5.2-19.5h2.6L44,149.1z"/>
	<path style="fill:#FFFFFF;" d="M49.3,159.1c-2.1,0-2.9-1.1-2.3-3.3l3.4-12.8c0.6-2.2,1.9-3.3,4-3.3H57c2.1,0,2.8,1.1,2.2,3.3
		l-3.4,12.8c-0.6,2.2-1.9,3.3-4,3.3H49.3z M50.6,156.8h1.3c0.7,0,1.1-0.4,1.3-1.1l3.3-12.5c0.2-0.8-0.1-1.1-0.9-1.1h-1.2
		c-0.8,0-1.2,0.4-1.4,1.1l-3.3,12.5C49.5,156.4,49.8,156.8,50.6,156.8z"/>
	<path style="fill:#FFFFFF;" d="M70.9,139.6l-8.4,19.5h-3.1l2.1-19.5h2.6l-1.9,14.9l6.1-14.9H70.9z"/>
	<path style="fill:#FFFFFF;" d="M69.3,159.1h-2.6L71,143c0.6-2.2,1.9-3.3,4-3.3h2c2.1,0,2.8,1.1,2.2,3.3l-4.3,16.1h-2.6l1.9-7.1h-3
		L69.3,159.1z M74.9,149.6l1.7-6.5c0.2-0.8-0.1-1.1-0.8-1.1h-0.7c-0.8,0-1.2,0.4-1.4,1.1l-1.7,6.5H74.9z"/>
	<path style="fill:#FFFFFF;" d="M86,142l-4.6,17.1h-2.6l4.6-17.1h-2.5l0.6-2.4h7.6l-0.6,2.4H86z"/>
	<path style="fill:#FFFFFF;" d="M85.4,159.1l5.2-19.5h2.6L88,159.1H85.4z"/>
	<path style="fill:#FFFFFF;" d="M93.4,159.1c-2.1,0-2.9-1.1-2.3-3.3l3.4-12.8c0.6-2.2,1.9-3.3,4-3.3h2.5c2.1,0,2.8,1.1,2.2,3.3
		l-3.4,12.8c-0.6,2.2-1.9,3.3-4,3.3H93.4z M94.7,156.8H96c0.7,0,1.1-0.4,1.3-1.1l3.3-12.5c0.2-0.8-0.1-1.1-0.9-1.1h-1.2
		c-0.8,0-1.2,0.4-1.4,1.1l-3.3,12.5C93.6,156.4,93.9,156.8,94.7,156.8z"/>
	<path style="fill:#FFFFFF;" d="M109.4,149.1l2.5-9.4h2.6l-5.2,19.5h-2.6l1-3.9l-0.4-8.9l-3.4,12.8h-2.6l5.2-19.5h2.6L109.4,149.1z"
		/>
	<path style="fill:#00AEEF;" d="M125.2,147.9l-0.6,2.4h-3.4l-2.4,8.8h-2.6l5.2-19.5h6.5l-0.6,2.4h-3.9l-1.6,5.9L125.2,147.9
		L125.2,147.9z"/>
	<path style="fill:#00AEEF;" d="M124.4,159.1l5.2-19.5h2.6l-5.2,19.5H124.4z"/>
	<path style="fill:#00AEEF;" d="M134.6,139.6h5.1c2,0,2.7,1.1,2.1,3.3l-1.3,4.8c-0.5,1.7-1.3,2.8-2.4,3.2l-0.4,8.1h-2.5l0.4-7.9H134
		l-2.1,7.9h-2.6L134.6,139.6z M134.7,149h1.7c0.8,0,1.3-0.5,1.5-1.4l1.1-4.2c0.3-0.9,0-1.4-0.8-1.4h-1.7L134.7,149z"/>
	<path style="fill:#00AEEF;" d="M148.5,144.9l0.5-1.7c0.2-0.8-0.1-1.2-0.8-1.2h-0.4c-0.7,0-1.2,0.4-1.4,1.2l-0.9,3.2
		c-0.1,0.4-0.1,0.6,0,0.7c0.1,0.1,0.3,0.3,0.6,0.5l2.1,1.3c0.5,0.3,0.8,0.5,1,0.7s0.3,0.4,0.4,0.6c0.1,0.2,0,0.7-0.2,1.4l-1.1,4.2
		c-0.6,2.2-1.9,3.3-4,3.3h-1.6c-2.1,0-2.8-1.2-2.2-3.6l0.3-1h2.6l-0.3,1.1c-0.2,0.8,0.1,1.1,0.9,1.1h0.5c0.7,0,1.1-0.4,1.3-1.1
		l0.9-3.3c0.1-0.4,0.1-0.6,0-0.7c-0.1-0.1-0.3-0.3-0.6-0.5l-2.1-1.4c-0.5-0.3-0.8-0.5-1-0.7s-0.3-0.5-0.3-0.8s0-0.7,0.2-1.2l1.1-4
		c0.6-2.2,1.9-3.3,4-3.3h1.6c2.1,0,2.8,1.1,2.2,3.3l-0.5,1.9H148.5z"/>
	<path style="fill:#00AEEF;" d="M158.2,142l-4.6,17.1H151l4.6-17.1h-2.5l0.6-2.4h7.6l-0.6,2.4H158.2z"/>
</g>
</svg>
